<svg width="32" height="27" viewBox="0 0 32 27" fill="none" xmlns="http://www.w3.org/2000/svg">
<path d="M32 0H0V26.1242H32V0Z" fill="#ED1D24"/>
<path d="M3.54195 10.5622C3.28763 10.1373 3.16202 9.65658 3.16202 9.11691V3.62256H4.72054V9.06884C4.72054 9.53717 4.84305 9.90005 5.08962 10.1575C5.33464 10.4149 5.6727 10.5436 6.10071 10.5436C6.52872 10.5436 6.86834 10.4149 7.11802 10.1575C7.36769 9.90005 7.4933 9.53717 7.4933 9.06884V3.62256H9.06267V9.11691C9.06267 9.65658 8.93396 10.1373 8.67653 10.5622C8.4191 10.9871 8.06553 11.3159 7.61736 11.5501C7.16919 11.7842 6.66364 11.9005 6.10071 11.9005C5.54554 11.9005 5.04464 11.7842 4.59647 11.5501C4.14675 11.3159 3.79628 10.9871 3.54195 10.5622Z" fill="white"/>
<path d="M17.2305 11.8292H15.672L12.6511 6.70393V11.8292H11.0926V3.62256H12.6511L15.672 8.76024V3.62256H17.2305V11.8292Z" fill="white"/>
<path d="M20.8934 3.62256V11.8276H19.3349V3.62256H20.8934Z" fill="white"/>
<path d="M28.5883 13.0063L27.3989 13.6607L26.4359 11.8882C26.2451 11.9114 26.0435 11.9239 25.8295 11.9239C23.8709 11.9239 22.8924 10.8337 22.8924 8.65329V6.77532C22.8924 4.59495 23.888 3.50476 25.8776 3.50476C26.7894 3.50476 27.5105 3.76064 28.0424 4.27239C28.5744 4.78414 28.8395 5.61845 28.8395 6.77532V8.65329C28.8395 9.96989 28.4674 10.8895 27.7214 11.4121L28.5883 13.0063ZM25.876 10.5328C26.3521 10.5328 26.7041 10.3808 26.9352 10.0753C27.1647 9.76984 27.2795 9.28911 27.2795 8.63003V6.85751C27.2795 6.15967 27.1647 5.65412 26.9352 5.34086C26.7057 5.02761 26.3521 4.87098 25.876 4.87098C25.3767 4.87098 25.0154 5.02296 24.7936 5.32846C24.5718 5.63396 24.4602 6.14261 24.4602 6.85596V8.62848C24.4602 9.30306 24.5718 9.78845 24.7936 10.0846C25.0154 10.3839 25.3767 10.5328 25.876 10.5328Z" fill="white"/>
<path d="M4.72054 14.9338V21.7836H8.3121V23.1389H3.16202V14.9338H4.72054Z" fill="white"/>
<path d="M12.5333 18.085C12.5333 15.9046 13.5289 14.8145 15.5185 14.8145C16.4303 14.8145 17.1514 15.0703 17.6834 15.5821C18.2153 16.0938 18.4804 16.9281 18.4804 18.085V19.9645C18.4804 21.1214 18.2091 21.9573 17.6663 22.4675C17.1235 22.9792 16.3916 23.2351 15.472 23.2351C13.5133 23.2351 12.5348 22.1449 12.5348 19.9645L12.5333 18.085ZM16.9219 19.9397V18.1672C16.9219 17.4694 16.8072 16.9638 16.5777 16.6506C16.3481 16.3373 15.9946 16.1807 15.5185 16.1807C15.0191 16.1807 14.6578 16.3327 14.4361 16.6382C14.2143 16.9437 14.1026 17.4523 14.1026 18.1657V19.9382C14.1026 20.6128 14.2143 21.0981 14.4361 21.3943C14.6578 21.6921 15.0191 21.841 15.5185 21.841C15.9946 21.841 16.3466 21.689 16.5777 21.3835C16.8072 21.0795 16.9219 20.5988 16.9219 19.9397Z" fill="white"/>
<path d="M29.2893 23.1389H27.7308V19.6668H25.0076V23.1389H23.4491V14.9338H25.0076V18.3114H27.7308V14.9338H29.2893V23.1389Z" fill="white"/>
</svg>
